<?xml version="1.0" encoding="utf-8"?>
<!-- Generator: Adobe Illustrator 23.0.1, SVG Export Plug-In . SVG Version: 6.00 Build 0)  -->
<svg version="1.1" id="Слой_1" xmlns="http://www.w3.org/2000/svg" xmlns:xlink="http://www.w3.org/1999/xlink" x="0px" y="0px"
	 viewBox="0 0 186.8 42.9" style="enable-background:new 0 0 186.8 42.9;" xml:space="preserve">
<style type="text/css">
	.st0{display:none;}
	.st1{display:inline;fill:none;stroke:#E8E7E7;stroke-width:1.1277;stroke-miterlimit:10;}
	.st2{fill:#FFFFFF;}
</style>
<g id="Layer_2" class="st0">
	<rect x="-36.6" y="-21.3" class="st1" width="260" height="90"/>
</g>
<g id="Layer_1">
	<g>
		<path class="st2" d="M139.4,13.4c-2.4,1.3-2.3,5.5,0.3,6.5c2.8,1,5.8,1.1,8.6,1.8c0.7,0.2,1.4,0.5,1.7,1.2c0.7,1.4,0.1,3.5-1.5,4
			c-2.3,0.7-5,0.7-7.2-0.2c-1.5-0.6-2.2-2.1-2.3-3.5c-0.6,0-1.3,0-1.9,0.1c0.1,1.4,0.4,2.9,1.5,3.8c1.8,1.4,4.1,1.6,6.3,1.7
			c2,0,4.2-0.2,5.9-1.3c2-1.4,2.2-5.1-0.2-6.3c-2.2-1.1-4.7-1.2-7-1.7c-1.1-0.3-2.4-0.4-3.4-1.1c-1.3-1.2-0.7-3.7,1-4.1
			c2.2-0.6,4.6-0.7,6.7,0.1c1.3,0.4,1.8,1.8,2,2.9c0.6,0,1.2,0,1.9,0c0-1.2-0.4-2.5-1.4-3.3c-1.6-1.3-3.8-1.4-5.7-1.4
			C143,12.5,141.1,12.5,139.4,13.4z"/>
		<path class="st2" d="M68.1,13.9c-1-0.9-2.5-1.2-3.8-1.2c-2.9,0-5.8,0.1-8.7,0.1c0,5.1,0,10.3,0,15.4c0.5,0,1,0,1.5,0
			c0-2.2-0.1-4.4,0-6.5c2.5,0,4.9,0,7.4,0c1.8-0.1,3.9-0.9,4.6-2.7C69.7,17.3,69.5,15.1,68.1,13.9z M67.3,18.7
			c-0.5,1.3-2,1.7-3.3,1.8c-2.3,0.1-4.6,0-6.8,0c0-2.1,0-4.3,0-6.4c2.2,0,4.4,0,6.6,0c1.1,0,2.4,0.2,3.1,1.1
			C67.6,16.1,67.7,17.5,67.3,18.7z"/>
		<path class="st2" d="M173.5,12.8c0,5.1,0,10.2,0,15.4c4.4,0,8.9,0,13.3,0c0-0.4,0-0.8,0-1.3c-3.8-0.1-7.6,0-11.5-0.1
			c0-4.7,0-9.4,0-14.1C174.7,12.8,174.1,12.8,173.5,12.8z"/>
		<path class="st2" d="M96.7,14.8c0,1.1,0,2.2,0,3.3c-0.7,0-1.3,0-2,0c0,0.3,0,0.7,0,1c0.7,0,1.4,0,2,0c0,2.3,0,4.7,0,7
			c0,0.7,0.2,1.4,0.8,1.8c1.1,0.5,2.3,0.4,3.5,0.3c0-0.3,0-0.7,0-1c-0.8,0.1-1.6,0.2-2.3-0.2c-0.5-0.3-0.4-0.9-0.5-1.4
			c0-2.2,0-4.3,0-6.5c0.9,0,1.8,0,2.7,0c0-0.4,0-0.7-0.1-1.1c-0.9,0-1.8,0-2.7,0c0-1.1,0-2.2,0-3.3C97.8,14.8,97.2,14.8,96.7,14.8z"
			/>
		<path class="st2" d="M84,18.7c-1.4,0.9-1.4,3.5,0.3,4.2c2.3,0.8,4.9,0.6,7.3,1.3c1.2,0.4,1.3,2.2,0.2,2.8
			c-1.6,0.8-3.5,0.7-5.2,0.4c-1.2-0.2-2.2-1-2.3-2.3c-0.6,0-1.2,0-1.7,0c0.2,0.9,0.4,1.9,1.2,2.5c1.3,0.9,3,0.9,4.5,1
			c1.6,0,3.3-0.1,4.7-0.9c1.2-0.7,1.6-2.3,0.9-3.4c-0.5-0.8-1.4-1.1-2.3-1.3c-1.9-0.4-3.9-0.4-5.8-0.8c-0.7-0.2-1.3-0.7-1.3-1.4
			c0-1,1.1-1.5,2-1.7c1.4-0.2,3-0.3,4.4,0.3c0.8,0.3,1,1.1,1.2,1.9c0.6,0,1.1,0,1.7,0c-0.1-0.9-0.4-1.9-1.2-2.4c-1.5-1-3.3-1-5-0.9
			C86.4,17.9,85.1,18,84,18.7z"/>
		<path class="st2" d="M119.5,18.2c-0.7,0.3-1.1,1-1.5,1.7c0-0.6,0-1.2,0-1.7c-0.5,0-1,0-1.6,0c-0.1,3.4,0,6.7,0,10.1
			c0.5,0,1,0,1.5,0c0-1.7,0-3.5,0-5.2c0-1.2,0.4-2.6,1.4-3.3c1.1-0.8,2.5-0.6,3.8-0.6c0-0.4,0-0.9,0-1.3
			C121.9,17.8,120.7,17.7,119.5,18.2z"/>
		<path class="st2" d="M157.1,13.6c2.2-1.1,4.7-1.3,7.1-1.1c2.3,0.2,4.6,1,6.1,2.8c1.9,2,2.3,5.2,1.5,7.8c-0.4,1.5-1.4,2.6-2.5,3.6
			c0.9,0.6,1.8,1.2,2.7,1.9c-0.4,0.4-0.8,0.7-1.2,1.1c-0.9-0.6-1.8-1.3-2.7-1.8c-0.7,0-1.4,0.4-2.2,0.6c-2,0.4-4.2,0.4-6.2,0
			c-2.2-0.4-4.4-1.7-5.6-3.7c-1.2-1.9-1.3-4.4-0.8-6.5C153.9,16.2,155.3,14.5,157.1,13.6z M160.1,14c-2.1,0.5-4.1,2-4.8,4.1
			c-0.7,2.3-0.5,5,1.2,6.9c1.5,1.7,3.7,2.4,5.9,2.4c2.4,0.1,5-0.6,6.6-2.5c2.2-2.8,1.9-7.3-1-9.5C165.8,13.5,162.8,13.4,160.1,14z"
			/>
		<path class="st2" d="M96.7,14.8c0.5,0,1,0,1.6,0c0,1.1,0,2.2,0,3.3c0.9,0,1.8,0,2.7,0c0,0.4,0,0.7,0.1,1.1c-0.9,0-1.8,0-2.7,0
			c0,2.2,0,4.3,0,6.5c0,0.5,0,1.1,0.5,1.4c0.7,0.3,1.5,0.2,2.3,0.2c0,0.3,0,0.7,0,1c-1.2,0.1-2.4,0.2-3.5-0.3
			c-0.7-0.3-0.9-1.1-0.8-1.8c0-2.3,0-4.7,0-7c-0.7,0-1.4,0-2,0c0-0.3,0-0.7,0-1c0.7,0,1.3,0,2,0C96.7,17,96.7,15.9,96.7,14.8z"/>
		<path class="st2" d="M79.5,18.7c-1.8-1-4-1.1-6-0.8c-1.7,0.3-3.3,1.2-4,2.8s-0.7,3.5,0.1,5.1c0.9,1.7,2.8,2.6,4.6,2.7
			c2.3,0.2,4.9-0.1,6.6-1.9C82.6,24.3,82.2,20.2,79.5,18.7z M79.2,26.2c-0.9,0.9-2.2,1.3-3.4,1.3c-1.4,0.1-2.9-0.2-3.9-1.1
			c-1.3-1.2-1.5-3.2-1-4.9c0.5-1.5,1.9-2.4,3.4-2.6c1.4-0.2,3-0.1,4.3,0.7c1,0.6,1.5,1.7,1.6,2.8C80.4,23.8,80.2,25.2,79.2,26.2z"/>
		<path class="st2" d="M84,18.7c1-0.7,2.3-0.8,3.5-0.9c1.7-0.1,3.6-0.1,5,0.9c0.8,0.5,1.1,1.5,1.2,2.4c-0.6,0-1.1,0-1.7,0
			c-0.1-0.8-0.4-1.5-1.2-1.9c-1.4-0.6-2.9-0.6-4.4-0.3c-0.9,0.1-2,0.6-2,1.7c-0.1,0.7,0.6,1.3,1.3,1.4c1.9,0.5,3.9,0.4,5.8,0.8
			c0.9,0.2,1.8,0.6,2.3,1.3c0.7,1.1,0.3,2.8-0.9,3.4c-1.4,0.8-3.1,0.9-4.7,0.9c-1.5-0.1-3.2-0.1-4.5-1c-0.8-0.6-1.1-1.5-1.2-2.5
			c0.6,0,1.2,0,1.7,0c0,1.3,1.1,2.2,2.3,2.3c1.7,0.2,3.6,0.4,5.2-0.4c1.1-0.6,1-2.4-0.2-2.8c-2.4-0.7-5-0.5-7.3-1.3
			C82.6,22.2,82.6,19.6,84,18.7z"/>
		<path class="st2" d="M105.8,18c1.6-0.4,3.4-0.4,5,0.1c0.9,0.3,1.6,1,2.3,1.6c0-0.6,0.1-1.1,0.1-1.6c0.5,0,1,0,1.5,0
			c0.1,3.1,0,6.2,0.1,9.3c0.1,1.3-0.2,2.7-1.2,3.6c-1.3,1.2-3.2,1.4-4.9,1.4c-1.5,0-3.1-0.1-4.5-0.8c-0.9-0.5-1.4-1.5-1.6-2.5
			c0.5,0,1,0,1.5,0c0.3,0.7,0.6,1.5,1.3,1.8c1.1,0.5,2.3,0.5,3.5,0.5c1.3-0.1,2.8-0.3,3.6-1.4c0.8-1.1,0.6-2.5,0.6-3.8
			c-1.6,1.7-4.1,2-6.3,1.7c-1.4-0.2-2.8-0.7-3.8-1.8c-1.1-1.4-1.2-3.3-0.8-4.9C102.6,19.6,104.2,18.4,105.8,18z M107.1,19
			c-1.1,0.2-2.3,0.7-2.9,1.7c-0.7,1.2-0.7,2.8-0.3,4c0.5,1.3,2,2,3.3,2.2c1.7,0.2,3.7,0,4.9-1.3c1.4-1.7,1.2-4.6-0.6-5.9
			C110.3,18.8,108.6,18.8,107.1,19z"/>
		<path class="st2" d="M119.5,18.2c1.2-0.5,2.4-0.4,3.6-0.4c0,0.4,0,0.9,0,1.3c-1.3,0-2.7-0.2-3.8,0.6c-1,0.7-1.4,2.1-1.4,3.3
			c0,1.7,0,3.5,0,5.2c-0.5,0-1,0-1.5,0c-0.1-3.4-0.1-6.7,0-10.1c0.5,0,1,0,1.6,0c0,0.6,0,1.2,0,1.7
			C118.4,19.2,118.8,18.5,119.5,18.2z"/>
		<path class="st2" d="M123.7,20.3c1-1.7,3.1-2.4,5-2.5c2-0.1,4.2,0.2,5.6,1.7c1.1,1,1.4,2.5,1.5,4c-3.8,0-7.5,0-11.3,0
			c0.1,1,0.4,2.1,1.2,2.8c1.5,1.3,3.7,1.5,5.5,1c1.2-0.3,2.2-1.2,2.6-2.4c0.6,0,1.2,0,1.7,0c-0.5,1.7-2,2.9-3.7,3.3
			c-2.3,0.5-5,0.4-7-1C122.8,25.8,122.4,22.5,123.7,20.3z M126.6,19.5c-1.1,0.6-1.7,1.8-1.9,3c3.2,0,6.4,0,9.6,0
			c-0.1-0.7-0.3-1.5-0.8-2C131.8,18.5,128.7,18.3,126.6,19.5z"/>
		<g>
			<path class="st2" d="M24.9,0.8c3-0.9,6.2-1.2,9.2-0.3c2.4,0.7,4.6,2.1,6.1,4.1C40.8,5.4,41,6.5,41,7.5c0.1,1.8-0.3,3.6-0.7,5.3
				c-1.1,4.6-3.1,8.9-5.6,12.9c1.4,0.6,3,0.3,4.4,0.1c0.6-0.1,1.4-0.3,1.8,0.3s0,1.3-0.4,1.7c-2.1,2.1-5.3,2.6-8.1,2.1
				c-0.3,2.5-0.6,5-1,7.6c-0.2,1.4-0.7,2.9-1.8,3.8c-1,0.9-2.4,1.3-3.7,1.5S23,42.9,22,41.9c-1.1-1-1.8-2.5-1.9-3.9
				c-0.3-2.5-0.3-5.1-0.3-7.6c-1.2,1-2.8,1.6-4.4,1.5c-1.1-0.1-2.4-0.3-3.2-1.1c-0.5-0.4-0.4-1.2,0.1-1.6c0.9-0.7,2.1-0.6,3.1-1
				c0.8-0.2,1.2-1,1.6-1.5c-0.9-0.1-1.8-0.3-2.5-0.7c-1.2,1.3-2.4,2.7-3.5,4c-0.7,0.8-1.6,1.5-2.7,1.3c-1.2-0.2-2.1-1.1-2.8-2
				c-1.3-1.9-2.2-4.1-2.9-6.3c-1.1-3.6-2-7.2-2.5-10.9c-0.3-2.8,0-5.8,1.6-8.1C3,2.1,5.2,1.1,7.4,0.9c3-0.3,6,0.3,8.8,1.3
				c2.3-1.5,5.3-1.8,8-1.2C24.5,0.8,24.7,0.9,24.9,0.8z M27.1,1.6c0.6,0.4,1.2,0.7,1.8,1.1c2.4,1.6,4.3,3.9,5.4,6.5
				c0.3,0.8,0.7,1.5,0.6,2.4c0,1.7-0.6,3.4-0.4,5.1c0.2,1.8,0.6,3.7,0.1,5.5c-0.1,0.6-0.5,1.2-0.7,1.8c0,0.1,0.1,0.3,0.1,0.3
				c0.2-0.3,0.4-0.6,0.6-0.9c1.9-3.1,3.3-6.5,4.3-10c0.5-1.9,0.9-3.9,0.9-5.9c0-0.8-0.1-1.7-0.6-2.4c-1.1-1.4-2.6-2.5-4.3-3.2
				C32.4,1.1,29.7,1,27.1,1.6z M20.1,1.8c-1.9,0.2-3.7,1.3-4.8,2.8c-1.5,2.1-2.2,4.7-2.4,7.2c1.6-0.7,3.3-1.4,5.1-1
				c1.1,0.3,2,1.3,2.2,2.4c0.5,2.3,0.8,4.6,0.3,6.9c-0.4,1.8-1.5,3.4-1.9,5.3c0.5,0,1,0.1,1.4,0.3c0.9,0.5,1.4,1.5,1.3,2.5
				c-0.1,2.5-0.1,5,0.1,7.5c0.1,1,0.1,2.1,0.4,3.1c0.4,1.2,1.2,2.4,2.5,2.7c1.4,0.2,2.8-0.2,4.1-0.8c1.2-0.6,1.8-2,2-3.3
				c0.4-2.7,0.7-5.4,1-8.1c0.1-1-0.1-2,0.5-2.9c0.3-0.6,0.9-0.8,1.4-1.1c-0.4-0.6-0.9-1.2-1.3-1.8c-1.3-2.8-3.1-5.4-3.7-8.4
				c-0.2-1.3-0.1-2.8,1-3.7c1.2-1,2.8-0.9,4.3-0.9c-0.9-2.5-2.5-4.7-4.5-6.3C26.5,2.3,23.2,1.4,20.1,1.8z M6.8,2
				C5.1,2.3,3.4,3.3,2.5,4.9C1.3,7,1.2,9.4,1.4,11.7c0.4,3,1.1,6,2,9c0.8,2.5,1.6,5,3,7.2c0.5,0.8,1.1,1.6,2,1.9
				c0.8,0.2,1.4-0.5,1.9-1c1-1.3,2.2-2.5,3.3-3.8c-1.6-1.4-2.4-3.6-2.2-5.8c0.2-1.6,0.3-3.3,0.2-5c-0.2-2.3,0.2-4.7,0.9-7
				C13,5.5,13.9,4,15.1,2.7C12.4,2.1,9.5,1.5,6.8,2z M30.1,12.3c-0.8,0.6-0.8,1.8-0.6,2.7c0.6,2.9,2.3,5.3,3.5,7.9
				c1-1.9,0.4-4.1,0.2-6.2c-0.2-1.7,0.3-3.3,0.4-4.9C32.5,11.8,31.2,11.6,30.1,12.3z M12.8,13.4c0,1.4,0.1,2.8,0,4.1
				c-0.1,1.2-0.4,2.4-0.1,3.6c0.4,2.2,2.3,4,4.6,4c0.3-1.1,0.7-2.2,1.2-3.2c1.4-2.7,1.1-5.8,0.4-8.6c-0.2-0.8-0.9-1.4-1.7-1.4
				C15.6,11.9,14.1,12.6,12.8,13.4z M33.1,26.9c-0.4,0.4-0.4,1-0.4,1.5c0.9,0.3,1.9,0.3,2.9,0.2c1.4-0.2,2.9-0.6,4-1.7
				c-1.7,0.2-3.6,0.6-5.3-0.2C33.9,26.5,33.4,26.7,33.1,26.9z M16.6,28.9c-1,0.6-2.2,0.5-3.1,1c2,1,4.9,0.7,6.3-1.2
				c0.7-0.7,0-2.1-0.9-2C17.9,27.3,17.5,28.4,16.6,28.9z"/>
			<path class="st2" d="M16.4,12.8c0.6-0.2,1.3-0.1,1.8,0.3c0.3,0.3,0,0.8-0.3,0.9c-0.7,0.5-1.8,0-1.9-0.8
				C16,13,16.2,12.8,16.4,12.8z"/>
			<path class="st2" d="M30.5,12.7c-0.3,0.3,0,0.7,0.3,0.8c0.7,0.4,1.7-0.2,1.7-1C31.9,12.3,31.1,12.3,30.5,12.7z"/>
		</g>
	</g>
</g>
</svg>
