<?xml version="1.0" encoding="utf-8"?>
<!-- Generator: Adobe Illustrator 23.0.1, SVG Export Plug-In . SVG Version: 6.00 Build 0)  -->
<svg version="1.1" id="Слой_1" xmlns="http://www.w3.org/2000/svg" xmlns:xlink="http://www.w3.org/1999/xlink" x="0px" y="0px"
	 viewBox="0 0 156 23" style="enable-background:new 0 0 156 23;" xml:space="preserve">
<style type="text/css">
	.st0{fill:#3190FF;}
	.st1{fill:#162659;}
</style>
<polygon class="st0" points="21.4,0 30.9,23 19.1,23 9.6,0 "/>
<polygon class="st0" points="9.6,23 14.3,11.5 4.8,11.5 0,23 "/>
<polygon class="st0" points="35.7,11.5 40.4,0 30.9,0 26.2,11.5 "/>
<polygon class="st1" points="50.8,16.6 54.5,6.4 59.6,6.4 62.4,14.1 65.1,6.4 68.3,6.4 64.6,16.6 59.4,16.6 56.8,8.8 53.9,16.6 "/>
<path class="st1" d="M82,6.4h-5.4l-8.7,10.2h3.7l1.6-1.7h6.2l0.4,1.7h3.7L82,6.4z M75.3,12.2l3-3.5h0.5l0.4,3.5H75.3z"/>
<path class="st1" d="M116.1,6.4h-5.4L102,16.6h3.7l1.6-1.7h6.2l0.4,1.7h3.7L116.1,6.4z M109.4,12.2l3-3.5h0.5l0.4,3.5H109.4z"/>
<path class="st1" d="M154.5,6.4h-5.4l-8.7,10.2h3.7l1.6-1.7h6.2l0.4,1.7h3.7L154.5,6.4z M147.7,12.2l3-3.5h0.5l0.4,3.5H147.7z"/>
<polygon class="st1" points="86.3,16.6 90,6.4 93.2,6.4 91.9,10 93.5,10 98.3,6.4 102.7,6.4 95.8,11.3 99.6,16.6 95.1,16.6 
	92.6,12.6 90.9,12.6 89.5,16.6 "/>
<polygon class="st1" points="120.4,16.6 124.1,6.4 129.7,6.4 130.4,12.6 135.6,6.4 140.9,6.4 137.2,16.6 134.1,16.6 137,8.6 
	130.2,16.6 127.7,16.6 126.5,8.6 123.5,16.6 "/>
</svg>
