<svg width="203" height="30" viewBox="0 0 203 30" fill="none" xmlns="http://www.w3.org/2000/svg">
<g clip-path="url(#clip0)">
<path fill-rule="evenodd" clip-rule="evenodd" d="M27.8492 0L40.2317 30H24.7766L12.3825 0H27.8492Z" fill="#0878FF"/>
<path fill-rule="evenodd" clip-rule="evenodd" d="M12.3825 30L18.5853 15H6.19127L0 30H12.3825Z" fill="#0878FF"/>
<path fill-rule="evenodd" clip-rule="evenodd" d="M46.4345 15L52.6258 0H40.2317L34.0405 15H46.4345Z" fill="#0878FF"/>
<path fill-rule="evenodd" clip-rule="evenodd" d="M66.1246 21.6795L70.9349 8.3436H77.621L81.177 18.4091L84.7789 8.3436H88.8643L84.0539 21.6795H77.3678L73.8924 11.4869L70.2214 21.6795H66.1246Z" fill="white"/>
<path fill-rule="evenodd" clip-rule="evenodd" d="M106.805 8.3205H99.7853L88.404 21.6448H93.1798L95.2512 19.4029H103.353L103.813 21.6448H108.589L106.805 8.3205ZM98.0246 15.9476L101.903 11.3251H102.536L103.065 15.9476H98.0246Z" fill="white"/>
<path fill-rule="evenodd" clip-rule="evenodd" d="M151.214 8.3205H144.194L132.813 21.6448H137.589L139.66 19.4029H147.762L148.222 21.6448H152.998L151.214 8.3205ZM142.422 15.9476L146.3 11.3251H146.933L147.463 15.9476H142.422Z" fill="white"/>
<path fill-rule="evenodd" clip-rule="evenodd" d="M201.228 8.3205H194.208L182.827 21.6448H187.602L189.674 19.4029H197.775L198.236 21.6448H203.012L201.228 8.3205ZM192.436 15.9476L196.314 11.3251H196.947L197.476 15.9476H192.436Z" fill="white"/>
<path d="M112.421 21.6448L117.22 8.3205H121.317L119.625 12.9892H121.765L128.072 8.3205H133.699L124.781 14.6649L129.752 21.6448H123.825L120.523 16.433H118.382L116.506 21.6448H112.421Z" fill="white"/>
<path fill-rule="evenodd" clip-rule="evenodd" d="M156.807 21.6795L161.617 8.3436H168.96L169.869 16.4445L176.578 8.3436H183.54L178.73 21.6795H174.644L178.385 11.2211L169.627 21.6795H166.29L164.702 11.2442L160.892 21.6795H156.807Z" fill="white"/>
</g>
<defs>
<clipPath id="clip0">
<rect width="203" height="30" fill="white"/>
</clipPath>
</defs>
</svg>
